<?xml version="1.0" encoding="UTF-8" standalone="no"?>
<!-- Created with Inkscape (http://www.inkscape.org/) -->

<svg
   xmlns:dc="http://purl.org/dc/elements/1.1/"
   xmlns:cc="http://creativecommons.org/ns#"
   xmlns:rdf="http://www.w3.org/1999/02/22-rdf-syntax-ns#"
   xmlns:svg="http://www.w3.org/2000/svg"
   xmlns="http://www.w3.org/2000/svg"
   xmlns:inkscape="http://www.inkscape.org/namespaces/inkscape"
   version="1.1"
   width="461.25"
   height="461.25"
   id="svg2"
   xml:space="preserve"><metadata
     id="metadata8"><rdf:RDF><cc:Work
         rdf:about=""><dc:format>image/svg+xml</dc:format><dc:type
           rdf:resource="http://purl.org/dc/dcmitype/StillImage" /></cc:Work></rdf:RDF></metadata><defs
     id="defs6" /><g
     transform="matrix(1.25,0,0,-1.25,0,461.25)"
     id="g10"><g
       transform="scale(0.1,0.1)"
       id="g12"><path
         d="M 3645,1845 C 3645,850.891 2839.11,45 1845,45 850.887,45 45,850.891 45,1845 c 0,994.11 805.887,1800 1800,1800 994.11,0 1800,-805.89 1800,-1800 z"
         inkscape:connector-curvature="0"
         id="path14"
         style="fill:none;stroke:#231f20;stroke-width:90;stroke-linecap:butt;stroke-linejoin:miter;stroke-miterlimit:10;stroke-opacity:1;stroke-dasharray:none" /><path
         d="m 495,1845 2700,0"
         inkscape:connector-curvature="0"
         id="path16"
         style="fill:none;stroke:#231f20;stroke-width:90;stroke-linecap:butt;stroke-linejoin:miter;stroke-miterlimit:10;stroke-opacity:1;stroke-dasharray:none" /><path
         d="m 1845,506.879 0,2700.001"
         inkscape:connector-curvature="0"
         id="path18"
         style="fill:none;stroke:#231f20;stroke-width:90;stroke-linecap:butt;stroke-linejoin:miter;stroke-miterlimit:10;stroke-opacity:1;stroke-dasharray:none" /><path
         d="m 2061,3156.84 c 0,-119.29 -96.71,-216 -216,-216 -119.29,0 -216,96.71 -216,216 0,119.3 96.71,216 216,216 119.29,0 216,-96.7 216,-216"
         inkscape:connector-curvature="0"
         id="path20"
         style="fill:#100f0d;fill-opacity:1;fill-rule:nonzero;stroke:none" /><path
         d="m 2061,3156.84 c 0,-119.29 -96.71,-216 -216,-216 -119.29,0 -216,96.71 -216,216 0,119.3 96.71,216 216,216 119.29,0 216,-96.7 216,-216 z"
         inkscape:connector-curvature="0"
         id="path22"
         style="fill:none;stroke:#231f20;stroke-width:90;stroke-linecap:butt;stroke-linejoin:miter;stroke-miterlimit:10;stroke-opacity:1;stroke-dasharray:none" /><path
         d="m 2061,556.922 c 0,-119.293 -96.71,-216 -216,-216 -119.29,0 -216,96.707 -216,216 0,119.297 96.71,216 216,216 119.29,0 216,-96.703 216,-216"
         inkscape:connector-curvature="0"
         id="path24"
         style="fill:#100f0d;fill-opacity:1;fill-rule:nonzero;stroke:none" /><path
         d="m 2061,556.922 c 0,-119.293 -96.71,-216 -216,-216 -119.29,0 -216,96.707 -216,216 0,119.297 96.71,216 216,216 119.29,0 216,-96.703 216,-216 z"
         inkscape:connector-curvature="0"
         id="path26"
         style="fill:none;stroke:#231f20;stroke-width:90;stroke-linecap:butt;stroke-linejoin:miter;stroke-miterlimit:10;stroke-opacity:1;stroke-dasharray:none" /><path
         d="m 3360.96,1845 c 0,-119.29 -96.71,-216 -216,-216 -119.29,0 -216,96.71 -216,216 0,119.29 96.71,216 216,216 119.29,0 216,-96.71 216,-216"
         inkscape:connector-curvature="0"
         id="path28"
         style="fill:#100f0d;fill-opacity:1;fill-rule:nonzero;stroke:none" /><path
         d="m 3360.96,1845 c 0,-119.29 -96.71,-216 -216,-216 -119.29,0 -216,96.71 -216,216 0,119.29 96.71,216 216,216 119.29,0 216,-96.71 216,-216 z"
         inkscape:connector-curvature="0"
         id="path30"
         style="fill:none;stroke:#231f20;stroke-width:90;stroke-linecap:butt;stroke-linejoin:miter;stroke-miterlimit:10;stroke-opacity:1;stroke-dasharray:none" /><path
         d="m 761.039,1845 c 0,-119.29 -96.707,-216 -216,-216 -119.293,0 -216,96.71 -216,216 0,119.29 96.707,216 216,216 119.293,0 216,-96.71 216,-216"
         inkscape:connector-curvature="0"
         id="path32"
         style="fill:#100f0d;fill-opacity:1;fill-rule:nonzero;stroke:none" /><path
         d="m 761.039,1845 c 0,-119.29 -96.707,-216 -216,-216 -119.293,0 -216,96.71 -216,216 0,119.29 96.707,216 216,216 119.293,0 216,-96.71 216,-216 z"
         inkscape:connector-curvature="0"
         id="path34"
         style="fill:none;stroke:#231f20;stroke-width:90;stroke-linecap:butt;stroke-linejoin:miter;stroke-miterlimit:10;stroke-opacity:1;stroke-dasharray:none" /><path
         d="m 2061,1845 c 0,-119.29 -96.71,-216 -216,-216 -119.29,0 -216,96.71 -216,216 0,119.29 96.71,216 216,216 119.29,0 216,-96.71 216,-216"
         inkscape:connector-curvature="0"
         id="path36"
         style="fill:#100f0d;fill-opacity:1;fill-rule:nonzero;stroke:none" /><path
         d="m 2061,1845 c 0,-119.29 -96.71,-216 -216,-216 -119.29,0 -216,96.71 -216,216 0,119.29 96.71,216 216,216 119.29,0 216,-96.71 216,-216 z"
         inkscape:connector-curvature="0"
         id="path38"
         style="fill:none;stroke:#231f20;stroke-width:90;stroke-linecap:butt;stroke-linejoin:miter;stroke-miterlimit:10;stroke-opacity:1;stroke-dasharray:none" /></g></g></svg>